<?xml version="1.0" encoding="utf-8"?>
<svg xmlns="http://www.w3.org/2000/svg" xmlns:xlink="http://www.w3.org/1999/xlink" version= "1.1" width="1414px" height="1415px" viewBox="-167 356 1414 1415">
<g id="layer1">
<g style="fill:rgb(55,113,149); fill-opacity:1.0; stroke-linejoin: miter">
<path d="M-167.001,355.10822C-167.23726,355.10822,-167.46382,355.20206,-167.63087,355.3691C-167.79793,355.53616,-167.89178,355.76276,-167.89178,355.999L-167.89078,1771.0C-167.89078,1771.492,-167.49196,1771.8907,-167.0,1771.8907L1247.001,1771.8917C1247.2372,1771.8917,1247.4639,1771.7979,1247.6309,1771.6309C1247.7979,1771.4639,1247.8917,1771.2372,1247.8917,1771.001L1247.8907,356.0C1247.8907,355.50806,1247.492,355.10922,1247.0,355.10922L-167.001,355.10822 Z"/>
</g>
<g style="fill:rgb(255,184,155); fill-opacity:1.0; stroke-linejoin: miter">
<path d="M291.6197,1022.3344Q294.85373,1025.1847,299.64813,1024.0358Q300.83292,1023.7277,302.60245,1022.70526Q311.16376,1016.7707,313.93954,1015.72015Q318.1233,1013.76166,323.87866,1012.9405Q337.47418,1011.2015,351.2625,1013.57245Q356.7576,1014.70746,357.08405,1017.363Q337.52966,1030.2684,338.60703,1033.0868Q338.57037,1035.2577,342.42947,1035.9398Q346.24042,1036.5468,350.10422,1034.91Q351.93604,1034.1256,353.78995,1032.7157Q361.91672,1025.6699,365.00592,1023.6077L383.15753,1011.3034Q385.58093,1009.6021,389.47858,1005.78436Q390.07745,1005.26373,390.83557,1004.80756Q393.5603,1002.951,406.5526,1001.71674L405.21716,973.2764Q362.785,978.09015,334.56885,990.1816Q316.5435,997.9765,296.58884,1011.7907Q287.4396,1018.3986,291.5209,1022.236 Z"/>
</g>
<g style="fill:rgb(255,255,255); fill-opacity:1.0; stroke-linejoin: miter">
<path d="M383.39743,974.78375L397.98294,975.9301L404.8147,1016.22003L404.81726,1016.28375L385.67355,1014.4659L383.39786,974.79706 Z"/>
</g>
<g style="fill:rgb(0,0,0); fill-opacity:1.0; stroke-linejoin: miter">
<path d="M645.56635,761.2251L658.6612,781.00964L738.94244,820.2128C749.7867,892.7221,757.5842,934.2307,761.12,945.15735C764.09326,954.3485,766.57166,962.2138,769.32117,968.59235C771.9874,974.7758,778.2013,985.5274,788.0498,1000.8991C789.9745,1003.90314,791.3246,1007.86395,791.06116,1012.53107C790.09094,1029.6768,786.83997,1039.3589,782.7369,1041.6779C780.5136,1044.9657,769.54803,1044.9926,749.83997,1041.7557C739.6947,1036.1365,730.6847,1027.459,723.1227,1015.5247C720.0093,1010.61127,717.42883,1004.925,715.067,998.6584L705.4414,969.26215C704.06836,984.04767,702.9204,993.40265,703.5397,997.18097C704.4873,1002.9698,707.9962,1063.8339,712.5521,1180.0924L693.64996,1191.7804L693.0514,1433.4927C692.8894,1458.844,691.7211,1478.2526,691.33014,1491.807C690.57904,1517.8038,680.08966,1561.5771,658.07526,1623.0978L604.1583,1615.6063L602.3098,1587.4135C602.42944,1585.7887,603.25635,1583.8217,604.7909,1581.5131C613.7661,1574.4213,618.1128,1570.1554,617.83154,1568.7113C618.2283,1568.3885,618.28345,1566.8329,617.99695,1564.0414C612.9905,1551.3563,611.03345,1543.5211,612.1273,1540.5358C612.1675,1536.5416,616.2814,1528.6556,624.4689,1516.8788C622.04126,1509.8417,620.89624,1503.7823,621.29407,1498.7169C624.3758,1459.4247,625.252,1435.1439,624.514,1425.7762C623.66876,1415.0465,622.8835,1403.4335,620.1612,1391.2291C611.95856,1354.4559,605.0905,1322.6146,600.0729,1295.561C598.7283,1288.3113,596.7731,1281.2834,594.8263,1274.3518L586.511,1246.8313L549.7055,1346.7365C549.1351,1349.9462,548.6883,1357.0414,548.53973,1368.0258C548.398,1378.5385,549.21783,1390.1498,550.8244,1402.8551L566.6653,1516.1556C567.2976,1523.3392,570.5796,1535.0836,576.51074,1551.3927L572.8179,1570.4999L582.9321,1587.0878C584.1107,1591.2687,584.42847,1597.872,583.8841,1606.901L506.34756,1608.5396L517.14764,1574.1896L497.89078,1550.5802C474.38223,1425.9034,464.38974,1358.1539,465.19803,1347.0201C469.28415,1290.7645,471.85806,1257.8439,473.78152,1248.0045C477.30783,1229.9662,480.83456,1217.8219,493.5034,1179.125L473.06656,1181.0288C480.51053,1136.646,491.16666,1078.2585,492.63614,1062.7144C494.91397,1038.6327,496.59183,1026.2367,496.2748,1013.9521L400.2116,1023.50934L395.67242,974.36847L482.71976,958.98004C492.68332,922.04663,497.87473,897.62787,499.68832,885.911C500.96597,877.6556,500.19797,864.1733,498.493,844.9334C497.70004,835.98016,499.09457,829.44244,499.84073,825.36096C501.19785,817.93646,504.59708,808.8925,510.3677,798.28674L560.2608,781.9709L569.5118,774.8351L645.2692,761.27594 Z"/>
</g>
<g style="fill:rgb(255,255,255); fill-opacity:1.0; stroke-linejoin: miter">
<path d="M640.6328,757.4235L644.51337,768.46716Q643.3112,793.4767,642.6645,794.1273Q642.00165,797.26385,640.13727,802.61176Q628.07465,836.205,624.98846,845.7666L617.75104,868.9126Q610.96313,892.14734,607.03564,917.7006Q601.9142,946.37604,591.28766,1072.6522Q542.9721,1081.0956,515.6631,1077.1306Q524.32007,979.19293,532.2135,929.81995Q541.4666,865.496,571.1474,774.1358L640.54785,757.4438 Z"/>
</g>
<g style="fill:rgb(255,255,255); fill-opacity:1.0; stroke-linejoin: miter">
<path d="M753.9562,1036.8684L740.55054,1000.52936Q760.47266,997.5583,767.58875,998.87616Q775.4314,999.87885,777.83545,1006.3399Q779.35706,1010.5234,778.3917,1016.0418Q777.41797,1021.2895,774.3721,1025.1924Q769.2455,1032.1008,753.95764,1036.8696 Z"/>
</g>
<g style="fill:rgb(0,0,0); fill-opacity:1.0; stroke-linejoin: miter">
<path d="M582.7609,795.5771L596.19696,798.34344L605.08594,814.7L588.11615,825.5537Q589.77203,825.56305,589.66266,833.70294Q589.6408,841.8924,587.90155,863.06366Q585.13055,898.0094,570.2629,1042.0739L550.7734,1060.3876L535.5815,1042.5721L535.58905,1042.2169L566.1557,853.2152L576.0434,822.69635L572.9003,804.6677L582.7408,795.5987 Z"/>
</g>
<g style="fill:rgb(0,0,0); fill-opacity:1.0; stroke-linejoin: miter">
<path d="M600.29095,624.49585Q588.4764,625.73224,575.29553,634.03674Q562.2195,642.0263,558.1997,651.1581Q554.692,658.44965,554.5326,674.5868Q554.58655,706.41956,556.9487,719.56866L636.6813,728.8486Q652.48096,723.56134,653.41895,716.637Q653.84534,715.00653,654.0453,712.47125L654.6808,700.46765Q656.8589,679.1627,656.765,674.7048Q657.02893,663.94147,654.69226,657.33765Q650.8861,644.6421,630.4553,632.5706Q614.2418,622.6026,600.3017,624.4953 Z"/>
</g>
<g style="fill:rgb(255,184,155); fill-opacity:1.0; stroke-linejoin: miter">
<path d="M617.93005,650.22375L598.0961,654.6227Q594.8415,655.257,582.93353,655.0638L579.3278,655.5051Q574.8374,656.3898,570.3292,660.22217Q563.43274,666.06793,561.68896,677.19775Q560.135,685.0028,562.59326,711.6774Q562.5946,712.2046,562.04333,711.0615Q559.38367,703.7392,558.50146,702.2665Q557.50903,700.25665,556.3113,699.6735Q553.171,698.7361,551.296,707.3159Q550.1362,714.97797,552.6439,721.8317Q553.55457,724.1252,554.7622,725.4348Q555.23376,726.1818,559.04297,728.9241Q559.84827,729.7201,560.1483,730.4271Q560.3043,729.66754,562.5791,739.65283L564.4269,745.02515Q565.4618,747.6524,566.4944,749.5966Q566.95605,750.66895,569.5404,754.14307L570.29736,756.0192Q571.52795,759.05493,570.33575,776.3069L573.58405,779.86273Q579.1055,786.51636,590.4433,797.1899Q600.83594,795.1921,615.80634,786.09534Q628.5761,779.00836,637.16254,771.1291Q641.12665,767.7317,642.4661,766.23083Q641.2717,759.1146,641.203,753.22644Q640.8956,752.97345,643.6626,747.1947Q644.0731,746.1401,644.26074,745.008Q644.6234,743.8666,643.83887,737.7832Q643.83386,736.4446,644.14575,735.8292Q644.42993,734.99054,645.8661,734.26465L652.2367,731.9045Q653.3489,731.3244,654.4315,729.79614Q655.4851,728.18054,656.2864,725.67145Q660.6229,712.5746,660.5663,711.36383Q661.449,706.79364,659.8779,704.1784Q657.72,700.77704,654.7223,701.5074Q653.229,701.99207,651.7516,704.4951Q651.0292,705.3273,647.11694,715.25323Q646.30237,716.8806,646.13904,716.1796Q645.8635,715.28705,646.0747,711.97736Q648.5808,686.2808,648.15027,682.0448Q648.01416,672.6262,645.2732,666.24023Q636.2781,648.3592,618.06714,650.20575 Z"/>
</g>
<g style="fill:rgb(250,84,34); fill-opacity:0.15294118; stroke-linejoin: miter">
<path d="M569.95325,755.74396L598.7129,792.0025L636.0563,757.58466Q622.86774,769.2923,615.91364,773.1571Q607.819,777.7975,601.2114,777.59784Q587.7729,777.2521,570.0082,755.8095 Z"/>
</g>
<g style="fill:rgb(0,0,0); fill-opacity:1.0; stroke-linejoin: miter">
<path d="M611.5786,1612.3116L656.29193,1614.4305Q654.31964,1632.1993,654.7155,1639.1005Q654.8309,1642.1686,655.4417,1645.3888L657.96796,1656.1991Q658.3952,1658.9249,658.2519,1661.1769Q657.65106,1671.7516,645.44183,1673.826Q639.73315,1675.619,606.2335,1676.1613Q599.3679,1676.402,597.62085,1674.1957Q594.4742,1670.8319,596.88617,1658.5387Q597.67175,1655.118,598.6676,1653.2272Q599.1332,1652.3217,599.7433,1651.5399L602.5713,1648.4222Q603.24817,1647.6144,603.9237,1646.4684Q605.5365,1643.6981,607.19775,1638.5162Q610.7097,1627.743,611.5762,1612.3512 Z"/>
</g>
<g style="fill:rgb(0,0,0); fill-opacity:1.0; stroke-linejoin: miter">
<path d="M513.545,1600.7777L581.40656,1604.7462Q583.9488,1612.5797,584.41,1621.702Q584.8929,1624.7096,584.26263,1656.9413L544.6573,1660.6273L536.8224,1654.5012Q530.1194,1655.9807,524.39075,1657.6113Q495.79794,1666.5428,491.11996,1667.3798Q478.62128,1670.3881,468.50806,1670.8417Q443.13562,1671.273,430.67972,1663.6194Q425.66983,1659.4692,433.43915,1655.0669Q436.36346,1653.4604,440.81708,1652.1816Q442.47614,1651.5964,455.21143,1648.8506Q458.27893,1648.0957,460.0357,1647.4773Q464.2162,1646.0969,468.0348,1643.1804L513.44904,1600.8688 Z"/>
</g>
<g style="fill:rgb(142,77,29); fill-opacity:0.99607843; stroke-linejoin: miter">
<path d="M290.29196,967.195L338.03088,1001.2813L385.7699,1035.3674Q381.25955,1040.1902,376.74915,1045.0135Q328.22687,1010.27167,279.70447,975.52997L290.29196,967.195 Z"/>
</g>
<g style="fill:rgb(206,122,60); fill-opacity:0.99607843; stroke-linejoin: miter">
<path d="M288.30548,979.62933L288.3056,979.62946Q305.10544,971.71173,288.30548,979.62933 Z"/>
</g>
<g style="fill:rgb(206,122,60); fill-opacity:0.99607843; stroke-linejoin: miter">
<path d="M282.9625,972.69196L331.95258,1006.9046L380.94284,1041.1173Q379.0999,1043.3549,377.25717,1045.5922Q328.19485,1010.4355,279.13245,975.2795L282.9625,972.69196 Z"/>
</g>
<g style="fill:rgb(255,184,155); fill-opacity:0.99607843; stroke-linejoin: miter">
<path d="M313.7556,1013.9234L309.7458,1002.4754Q322.5443,994.9655,328.09155,992.3775Q333.79056,989.5817,343.48483,986.3238Q360.05002,1001.4506,363.0455,1004.7259Q368.7873,1010.7327,368.71906,1011.79266Q368.94666,1012.5307,368.61917,1012.9018L368.17783,1013.20355Q367.6101,1013.4244,366.63672,1013.4113Q365.66312,1013.39777,364.38293,1013.23834Q357.26233,1012.2148,355.22876,1012.1673Q352.75967,1011.9461,346.5015,1011.9887Q336.70386,1012.1451,313.7556,1013.9234 Z"/>
</g>
<g style="fill:rgb(0,0,0); fill-opacity:0.35686275; stroke-linejoin: miter">
<path d="M879.3646,1663.5432L876.3678,1667.637Q871.656,1670.3694,862.9269,1672.8315Q837.58923,1678.749,827.7013,1679.6079Q798.1915,1683.72,752.6132,1686.7495Q742.2696,1687.7859,679.7065,1690.278Q602.7328,1692.798,509.49252,1691.2821Q450.1702,1690.0413,401.41608,1687.3689Q342.78525,1683.7156,334.2296,1682.5549Q183.41037,1667.7279,248.95511,1649.0492Q332.3951,1630.9602,554.0362,1631.2247Q584.77423,1631.4877,613.21497,1632.142Q628.87134,1632.2242,693.36786,1634.9874Q743.357,1637.4719,784.15564,1641.5249Q804.5553,1643.5522,820.5901,1645.7651Q831.33545,1646.7549,858.87354,1652.8245Q877.84875,1657.8103,879.3646,1663.5432 Z"/>
</g>
<g style="fill:rgb(255,169,136); fill-opacity:1.0; stroke-linejoin: miter">
<path d="M590.7741,740.8268L591.6536,740.8643Q598.10504,741.11975,601.226,741.5049Q603.862,741.8264,607.3692,742.6605Q608.34393,742.17316,610.4975,741.4777Q611.7188,741.1149,612.89154,740.9288Q616.42126,740.36694,622.56213,740.021Q618.97644,744.73096,615.0963,746.5197Q610.8217,748.43097,604.4941,748.2372Q600.0843,748.01056,597.4754,746.6683Q596.3018,746.0614,595.04767,745.04553Q590.89813,740.7708,590.7741,740.8268 Z"/>
</g>
<g style="fill:rgb(255,169,136); fill-opacity:1.0; stroke-linejoin: miter">
<path d="M592.6999,727.07495L592.6999,727.0759Q598.13495,730.51514,600.9871,731.7285Q604.51117,733.30804,607.3149,733.0812Q608.38763,732.97516,609.3941,732.5931L610.387,732.1545Q611.3649,731.65356,612.29474,730.9515Q614.6317,729.24677,618.4675,724.6324L607.37494,738.41296L592.6999,727.07495 Z"/>
</g>
<g style="fill:rgb(255,255,255); fill-opacity:0.99607843; stroke-linejoin: miter">
<path d="M616.709,703.8813L616.70886,703.88257Q619.15405,702.5237,620.61743,702.0502Q621.2003,701.85364,621.8076,701.7234L622.4227,701.61383L623.0531,701.545L623.70056,701.5207L624.3657,701.5451L625.04785,701.6141L625.74536,701.7239Q626.45044,701.8547,627.1802,702.05096Q628.99817,702.525,632.4595,703.8837L616.709,703.8813 Z"/>
</g>
<g style="fill:rgb(0,0,0); fill-opacity:0.99607843; stroke-linejoin: miter">
<path d="M627.9812,702.26666L628.0148,702.3104Q628.2494,702.5832,628.23926,702.888Q628.2423,703.15076,627.9092,703.90497L621.1305,704.07556Q620.7516,702.64545,621.0128,702.31354Q621.0886,702.1286,621.2892,701.84656Q621.7344,701.7066,622.19165,701.58594Q623.4551,701.2632,624.4763,701.39465Q624.76416,701.4261,625.0676,701.4816Q625.2119,701.4982,626.0043,701.6898Q626.9718,701.9462,627.9812,702.26666 Z"/>
</g>
<g style="fill:rgb(0,0,0); fill-opacity:0.99607843; stroke-linejoin: miter">
<path d="M614.4498,738.0344L614.4498,738.0354L614.4498,738.0347L614.4498,738.0344 Z"/>
</g>
<g style="fill:rgb(255,255,255); fill-opacity:0.99607843; stroke-linejoin: miter">
<path d="M593.41376,703.57336L593.41376,703.57434Q590.9965,702.16724,589.5428,701.66437Q588.96405,701.4566,588.3593,701.31433L587.7464,701.19214L587.11774,701.1103L586.4709,701.07367L585.8051,701.08435L585.12213,701.1399L584.42255,701.236Q583.7149,701.35254,582.9814,701.5342Q581.15424,701.9718,577.6662,703.261L593.41376,703.57336 Z"/>
</g>
<g style="fill:rgb(0,0,0); fill-opacity:0.99607843; stroke-linejoin: miter">
<path d="M582.17633,701.7338L582.14166,701.77673Q581.9014,702.0447,581.9057,702.35Q581.8974,702.6125,582.2154,703.3729L588.9892,703.6792Q589.3968,702.257,589.1423,701.9201Q589.0699,701.7338,588.8753,701.4473Q588.43304,701.2988,587.9782,701.1689Q586.7211,700.82086,585.69745,700.93195Q585.4091,700.9579,585.1048,701.0073Q584.96027,701.02094,584.1641,701.1966Q583.1917,701.4335,582.17633,701.7338 Z"/>
</g>
<g style="fill:rgb(0,0,0); fill-opacity:1.0; stroke-linejoin: miter">
<path d="M640.2881,699.23004L640.2881,699.231C640.5532,703.55444,640.843,708.09595,639.4623,712.2403L639.4623,712.2413C638.0709,716.41626,634.9834,720.2044,629.87964,721.77234L629.87964,721.7733C626.73584,722.73804,622.8424,722.8531,619.3904,721.8743L619.3904,721.87445C617.3037,721.28253,615.3424,720.2803,613.80884,718.7862L613.80884,718.78644C609.7978,714.87836,608.9926,707.8129,608.2048,701.26C608.16095,700.8954,608.347,700.54175,608.6723,700.37134L608.6723,700.3723C613.0401,698.08136,617.6033,695.67505,622.8884,695.3599L622.8884,695.3609C627.0891,695.1088,631.6786,696.18146,636.2285,697.4716L636.2285,697.47174C637.3939,697.8019,638.56006,698.1478,639.72424,698.49286C640.1924,698.63184,640.4595,699.1239,640.3207,699.59216C640.18164,700.06055,639.6896,700.32776,639.2212,700.1888L639.2212,700.18896C638.05493,699.8429,636.89966,699.5,635.7462,699.1731L635.7462,699.1732C631.2008,697.88403,626.8673,696.8942,622.9938,697.12524L622.9938,697.1255C618.14966,697.4143,613.91907,699.61786,609.49335,701.93756L609.9609,701.049C610.779,707.8535,611.5798,714.1457,615.04297,717.5194L615.04297,717.5196C616.3208,718.7644,618.0011,719.6419,619.8728,720.1727L619.8728,720.17285C622.98694,721.0555,626.5325,720.95026,629.36035,720.08154L629.36035,720.0825C633.828,718.7092,636.54175,715.41046,637.7843,711.6812L637.7843,711.68134C639.03723,707.9206,638.79224,703.73773,638.5228,699.3382C638.49304,698.85046,638.8639,698.4314,639.35144,698.4014C639.8391,698.3714,640.2582,698.7424,640.2881,699.23004 Z"/>
</g>
<g style="fill:rgb(0,0,0); fill-opacity:1.0; stroke-linejoin: miter">
<path d="M599.36444,700.4029L599.36444,700.4031C599.0795,704.7259,598.79156,709.2675,596.89703,713.2037L596.89716,713.2039C594.9881,717.1703,591.4455,720.5365,586.18427,721.4451L586.18427,721.4461C582.9434,722.00476,579.0667,721.62573,575.7665,720.21716L575.7665,720.2176C573.77136,719.36584,571.9529,718.1238,570.6211,716.4476L570.6211,716.4478C567.13745,712.0631,567.23376,704.9523,567.2825,698.3526C567.2849,697.98535,567.5144,697.6579,567.85864,697.53L567.85864,697.53015C572.4813,695.8121,577.31256,694.00287,582.5953,694.3597L582.5953,694.35986C586.79364,694.6431,591.21027,696.2881,595.56024,698.1443L595.56024,698.1444C596.67426,698.61957,597.7872,699.1104,598.89825,699.6005C599.34515,699.7978,599.54755,700.3194,599.3505,700.76654C599.1535,701.2132,598.63153,701.4157,598.18463,701.2189L598.18463,701.219C597.0715,700.728,595.96906,700.2418,594.8659,699.7712L594.8659,699.77216C590.5208,697.9168,586.3476,696.38586,582.4764,696.12445L582.4764,696.12463C577.6342,695.7974,573.15857,697.447,568.47473,699.18787L569.051,698.36566C569.0005,705.21906,568.99817,711.56165,572.00586,715.34717L572.00586,715.34814C573.1157,716.7437,574.67114,717.8269,576.4609,718.5904L576.46075,718.5905C579.4378,719.86096,582.9681,720.2055,585.8831,719.70197L585.8831,719.7021C590.4891,718.9065,593.5987,715.97833,595.3033,712.4366L595.3033,712.43677C597.0225,708.8647,597.30963,704.685,597.5997,700.28625C597.63165,699.7992,598.0528,699.4301,598.5401,699.46216C599.0275,699.49445,599.39667,699.9154,599.36444,700.4029 Z"/>
</g>
<g style="fill:rgb(0,0,0); fill-opacity:0.99607843; stroke-linejoin: miter">
<path d="M612.51434,725.43085L612.51434,725.4311L612.51434,725.43097L612.51434,725.43085 Z"/>
</g>
<g style="fill:rgb(0,0,0); fill-opacity:0.99607843; stroke-linejoin: miter">
<path d="M597.8962,700.1466L598.42255,700.1134Q601.86176,699.87,604.03375,699.99744Q605.97943,700.0894,609.45953,700.85565L609.4068,704.18823Q607.1635,703.671,605.94476,703.46295Q604.24396,703.18744,603.5485,703.16486Q602.8376,703.0979,601.2569,703.1661Q600.13153,703.2255,598.15546,703.4756L597.8962,700.1466 Z"/>
</g>
<g style="fill:rgb(0,0,0); fill-opacity:0.99607843; stroke-linejoin: miter">
<path d="M613.8192,696.2195L614.5532,695.9093Q616.7544,694.9479,618.96265,694.27075Q619.699,694.0557,620.43677,693.9036L621.1749,693.7712Q621.9137,693.65717,622.6544,693.62976L623.3959,693.62683L624.13806,693.6672L624.88135,693.74725Q625.62524,693.8469,626.3706,694.01025Q628.2335,694.40204,631.59814,695.59436L613.8192,696.2195 Z"/>
</g>
<g style="fill:rgb(0,0,0); fill-opacity:0.99607843; stroke-linejoin: miter">
<path d="M610.5961,716.84265L610.5959,716.84375L610.596,716.8428L610.5961,716.84265 Z"/>
</g>
<g style="fill:rgb(0,0,0); fill-opacity:0.99607843; stroke-linejoin: miter">
<path d="M575.6217,694.12115L576.3826,693.8848Q579.0893,693.02783,581.09906,692.6559Q582.0621,692.4772,583.1823,692.4072Q583.7636,692.3658,584.6685,692.4115L585.40656,692.4812L586.1413,692.59454Q587.1601,692.77875,588.3294,693.1547Q588.8559,693.29315,590.7834,694.08264Q591.9399,694.57025,593.3759,695.2445L575.6217,694.12115 Z"/>
</g>
<g style="fill:rgb(255,12,0); fill-opacity:0.105882354; stroke-linejoin: miter">
<path d="M620.83435,723.55695L621.3435,724.2944Q623.6804,727.74426,625.6387,730.1581Q626.27747,730.89594,626.7074,731.33856L628.8136,733.1591Q629.1068,733.4923,629.27637,733.7753Q629.65955,734.6567,629.6642,735.84515Q629.699,737.0917,629.42175,739.8856Q629.406,737.06464,629.2733,735.82245Q629.16956,734.6356,628.79224,733.7946Q628.63367,733.5283,628.3712,733.22095Q626.8025,731.84393,626.496,731.50134Q626.19104,731.16425,625.8856,730.7912L625.21594,729.9629Q623.96594,728.33813,620.83435,723.55695 Z"/>
</g>
<g style="fill:rgb(255,12,0); fill-opacity:0.105882354; stroke-linejoin: miter">
<path d="M590.69244,723.6733L590.27313,724.4657Q588.3566,728.16516,586.69415,730.7922Q586.1462,731.59924,585.77106,732.0894L583.8929,734.1442Q583.6403,734.5094,583.5052,734.8102Q583.22784,735.73047,583.3625,736.91113Q583.4738,738.15326,584.07623,740.8956Q583.7618,738.09204,583.74786,736.843Q583.7121,735.65173,583.98834,734.77264Q584.11444,734.48975,584.3392,734.1537Q585.736,732.602,585.99994,732.22626Q586.26337,731.85583,586.5229,731.4494L587.0911,730.54865Q588.142,728.7887,590.69244,723.6733 Z"/>
</g>
<g style="fill:rgb(0,0,0); fill-opacity:0.99607843; stroke-linejoin: miter">
<path d="M571.8932,696.8781L573.37146,696.2883L555.5409,696.5815L555.3633,699.85254Q563.1008,700.8094,564.9613,701.5223Q565.4691,701.69543,565.8441,701.88464L566.192,702.0761Q566.50964,702.2716,566.7307,702.4787Q567.3071,702.9924,567.6006,704.0054L567.4691,698.7997L571.8932,696.8781 Z"/>
</g>
<g style="fill:rgb(0,0,0); fill-opacity:0.99607843; stroke-linejoin: miter">
<path d="M635.5835,698.1567L634.11255,697.54895L651.938,698.06244L652.0752,701.33545Q644.3264,702.1964,642.4574,702.88617Q641.9474,703.0531,641.5702,703.2372L641.21985,703.4248Q640.9,703.6164,640.6763,703.82056Q640.0935,704.32733,639.78735,705.33655L639.9835,700.1328L635.5835,698.1567 Z"/>
</g>
<g style="fill:rgb(255,255,255); fill-opacity:1.0; stroke-linejoin: miter">
<path d="M669.1199,991.93414L669.1199,991.93414L692.3893,1404.5527C692.4657,1405.9082,691.4289,1407.069,690.0735,1407.1454C688.7181,1407.2218,687.55725,1406.185,687.48083,1404.8296L687.48083,1404.8296L664.2114,992.211C664.135,990.8556,665.1718,989.69476,666.5272,989.61835C667.8826,989.54193,669.04346,990.57874,669.1199,991.93414 Z"/>
</g>
<g style="fill:rgb(255,255,255); fill-opacity:1.0; stroke-linejoin: miter">
<path d="M291.75128,982.91705L291.75128,982.91705L291.75128,982.918C291.75128,983.0017,291.74698,983.0853,291.73846,983.1686L291.73846,983.1686L268.0988,1213.9143C267.96042,1215.2648,266.75348,1216.2474,265.40295,1216.1091C264.05243,1215.9708,263.0698,1214.7638,263.20816,1213.4133L263.20816,1213.4133L286.84784,982.6675L286.83502,982.918L286.83502,982.91705C286.83502,981.55945,287.93558,980.4589,289.29315,980.4589C290.65073,980.4589,291.75128,981.55945,291.75128,982.91705 Z"/>
</g>
<g style="fill:rgb(255,255,255); fill-opacity:1.0; stroke-linejoin: miter">
<path d="M372.16803,1039.0544L372.16803,1039.0544L372.16803,1039.0554L372.16754,1039.0068L375.02798,1183.8787C375.05478,1185.236,373.9762,1186.358,372.61887,1186.3849C371.26154,1186.4117,370.1395,1185.3331,370.1127,1183.9758L370.1127,1183.9758L367.25226,1039.104L367.25177,1039.0554L367.25177,1039.0544C367.25177,1037.6969,368.35233,1036.5963,369.7099,1036.5963C371.06747,1036.5963,372.16803,1037.6969,372.16803,1039.0544 Z"/>
</g>
<g style="fill:rgb(255,255,255); fill-opacity:1.0; stroke-linejoin: miter">
<path d="M760.02954,1058.0615L760.02954,1058.0615L780.0457,1285.2637C780.21985,1287.2401,778.7587,1288.9836,776.7823,1289.1577C774.80585,1289.3318,773.0624,1287.8707,772.88824,1285.8943L772.88824,1285.8943L752.8721,1058.6921C752.69794,1056.7157,754.15906,1054.9722,756.1355,1054.7981C758.11194,1054.624,759.8554,1056.0851,760.02954,1058.0615 Z"/>
</g>
<g style="fill:rgb(255,184,155); fill-opacity:1.0; stroke-linejoin: miter">
<path d="M686.81116,1027.7667Q683.3136,1025.9769,682.87354,1022.1556Q682.8346,1017.8044,686.0217,1016.7327Q687.38513,1016.2912,689.61694,1016.52814Q698.4966,1018.3133,699.308,1018.16327Q701.7489,1018.305,704.25745,1017.836Q708.0519,1017.12274,712.7186,1015.23834Q715.1111,1014.4705,725.3418,1008.92975Q728.0458,1007.70123,731.1327,1006.9477Q733.36694,1006.4091,736.29517,1005.99176Q752.4353,1004.14496,754.208,1003.5921Q760.5614,1002.2907,766.4142,999.8315L772.09546,1001.2973Q777.1444,1004.7148,778.3026,1007.78265Q779.56396,1010.96185,778.2318,1016.77606Q775.0051,1030.1819,764.8666,1032.8867Q762.4452,1033.647,759.2356,1034.133L744.67834,1035.9243Q741.1179,1036.3113,735.4347,1035.9426Q720.5747,1035.2749,711.8225,1029.3042Q691.71375,1030.5978,686.9064,1027.8134 Z"/>
</g>
<g style="fill:rgb(142,77,29); fill-opacity:0.99607843; stroke-linejoin: miter">
<path d="M671.83813,977.86334L726.469,1021.64386L781.09894,1065.4235Q775.4046,1070.8722,769.71075,1076.3212Q714.1903,1031.7078,658.66956,987.0944L671.83813,977.86334 Z"/>
</g>
<g style="fill:rgb(206,122,60); fill-opacity:0.99607843; stroke-linejoin: miter">
<path d="M662.73987,983.92865L718.8534,1027.9424L774.966,1071.9559Q772.62177,1074.5001,770.27765,1077.0443Q714.1415,1031.9016,658.0045,986.75824L662.73987,983.92865 Z"/>
</g>
<g style="fill:rgb(255,184,155); fill-opacity:0.99607843; stroke-linejoin: miter">
<path d="M752.9291,1033.8252L750.1531,1034.947Q734.75745,1041.3182,726.84875,1042.3907Q717.6199,1043.6334,712.6903,1039.3623Q711.79456,1038.562,711.18005,1037.6299L710.6428,1036.6731Q710.17896,1035.687,710.0364,1034.6177Q709.6356,1032.6987,711.08813,1029.698Q712.65845,1025.5942,725.5708,1015.12396L752.9291,1033.8252 Z"/>
</g>
<g style="fill:rgb(0,0,0); fill-opacity:0.30588236; stroke-linejoin: miter">
<path d="M508.12735,1071.9878L508.12735,1071.9883L504.36172,1680.6198C504.3569,1681.3976,503.7225,1682.0243,502.94485,1682.0197C502.16727,1682.0148,501.54062,1681.3802,501.54544,1680.6024L501.54544,1680.6034L505.3113,1071.9705C505.31613,1071.1929,505.9504,1070.5662,506.728,1070.5708C507.5057,1070.5757,508.13223,1071.2102,508.12735,1071.9878 Z"/>
</g>
<g style="fill:rgb(0,0,0); fill-opacity:0.30588236; stroke-linejoin: miter">
<path d="M632.9209,1072.7603L632.9209,1072.761L629.1548,1681.3925C629.1499,1682.1703,628.5156,1682.797,627.7379,1682.7924C626.96045,1682.7872,626.33374,1682.1527,626.3386,1681.3751L626.3386,1681.3759L630.1046,1072.7429C630.1095,1071.9653,630.7438,1071.3386,631.52136,1071.3435C632.2991,1071.3484,632.9258,1071.9827,632.9209,1072.7603 Z"/>
</g>
<g style="fill:rgb(255,0,0); fill-opacity:1.0; stroke-linejoin: miter">
<path d="M227.54268,1249.9828L233.9398,1250.0223L240.337,1250.0624Q240.10132,1288.1698,239.86552,1326.2773Q233.46837,1326.2378,227.07118,1326.1985Q227.30693,1288.0907,227.54268,1249.9828 Z"/>
</g>
<g style="fill:rgb(255,0,0); fill-opacity:1.0; stroke-linejoin: miter">
<path d="M234.91603,1239.0157L233.99577,1239.0104L233.07549,1239.0045Q232.76161,1289.7433,232.44768,1340.4818Q233.36794,1340.4874,234.28822,1340.4933Q234.60216,1289.7548,234.91603,1239.0157 Z"/>
</g>
<g style="fill:rgb(255,0,0); fill-opacity:1.0; stroke-linejoin: miter">
<path d="M243.75726,1267.9242L250.15448,1267.964L256.5516,1268.004Q256.31583,1306.1115,256.08008,1344.2184Q249.68295,1344.1793,243.28574,1344.1398Q243.52148,1306.0321,243.75726,1267.9242 Z"/>
</g>
<g style="fill:rgb(255,0,0); fill-opacity:1.0; stroke-linejoin: miter">
<path d="M251.13065,1256.9574L250.21036,1256.9518L249.29004,1256.9464Q248.9762,1307.6849,248.66223,1358.423Q249.58252,1358.4288,250.50278,1358.4347Q250.81671,1307.6962,251.13065,1256.9574 Z"/>
</g>
<g style="fill:rgb(255,0,0); fill-opacity:1.0; stroke-linejoin: miter">
<path d="M259.89905,1297.6239L266.29623,1297.6641L272.69345,1297.7039Q272.4577,1335.8112,272.22192,1373.9188Q265.8247,1373.8795,259.42746,1373.84Q259.66324,1335.7318,259.89905,1297.6239 Z"/>
</g>
<g style="fill:rgb(255,0,0); fill-opacity:1.0; stroke-linejoin: miter">
<path d="M267.27246,1286.6575L266.3521,1286.6516L265.4319,1286.6464Q265.11795,1337.3844,264.80402,1388.1232Q265.7244,1388.129,266.6446,1388.1351Q266.95853,1337.3961,267.27246,1286.6575 Z"/>
</g>
<g style="fill:rgb(255,0,0); fill-opacity:1.0; stroke-linejoin: miter">
<path d="M276.06003,1324.2208L282.45724,1324.2606L288.85443,1324.3004Q288.61865,1362.4078,288.38284,1400.5155Q281.98566,1400.4762,275.58853,1400.4371Q275.8243,1362.3285,276.06003,1324.2208 Z"/>
</g>
<g style="fill:rgb(255,0,0); fill-opacity:1.0; stroke-linejoin: miter">
<path d="M283.43344,1313.2542L282.51324,1313.2483L281.5929,1313.2427Q281.27896,1363.9813,280.965,1414.7197Q281.88525,1414.7253,282.8056,1414.731Q283.11957,1363.9926,283.43344,1313.2542 Z"/>
</g>
<g style="fill:rgb(255,0,0); fill-opacity:1.0; stroke-linejoin: miter">
<path d="M292.27707,1341.7567L298.6743,1341.7965L305.07153,1341.8365Q304.83575,1379.9442,304.59982,1418.051Q298.2027,1418.012,291.80554,1417.9724Q292.0413,1379.8649,292.27707,1341.7567 Z"/>
</g>
<g style="fill:rgb(255,0,0); fill-opacity:1.0; stroke-linejoin: miter">
<path d="M299.65045,1330.7902L298.7302,1330.7843L297.8099,1330.7787Q297.496,1381.5175,297.18204,1432.2556Q298.10233,1432.2617,299.02258,1432.2676Q299.33655,1381.5289,299.65045,1330.7902 Z"/>
</g>
<g style="fill:rgb(76,175,80); fill-opacity:1.0; stroke-linejoin: miter">
<path d="M308.77664,1384.361L315.17386,1384.4003L321.571,1384.4393Q321.8068,1346.3317,322.0426,1308.2244Q315.6454,1308.1846,309.24817,1308.1448Q309.01242,1346.2526,308.77664,1384.361 Z"/>
</g>
<g style="fill:rgb(76,175,80); fill-opacity:1.0; stroke-linejoin: miter">
<path d="M316.0138,1395.4178L315.09344,1395.4122L314.1732,1395.4064Q314.4871,1344.6678,314.80103,1293.9292Q315.7213,1293.9348,316.64166,1293.9404Q316.3277,1344.6793,316.0138,1395.4178 Z"/>
</g>
<g style="fill:rgb(76,175,80); fill-opacity:1.0; stroke-linejoin: miter">
<path d="M325.2119,1366.6212L331.60913,1366.6608L338.00635,1366.7001Q338.24213,1328.5927,338.47803,1290.4851Q332.08072,1290.4448,325.6835,1290.4053Q325.4477,1328.5133,325.2119,1366.6212 Z"/>
</g>
<g style="fill:rgb(76,175,80); fill-opacity:1.0; stroke-linejoin: miter">
<path d="M332.44913,1377.6786L331.52887,1377.6727L330.60858,1377.6671Q330.92252,1326.9281,331.2364,1276.1897Q332.15665,1276.1953,333.0769,1276.2007Q332.76303,1326.9396,332.44913,1377.6786 Z"/>
</g>
<g style="fill:rgb(76,175,80); fill-opacity:1.0; stroke-linejoin: miter">
<path d="M341.72012,1337.1237L348.11728,1337.1625L354.5144,1337.2023Q354.75024,1299.0945,354.98608,1260.9873Q348.5888,1260.947,342.19165,1260.9072Q341.95593,1299.0154,341.72012,1337.1237 Z"/>
</g>
<g style="fill:rgb(76,175,80); fill-opacity:1.0; stroke-linejoin: miter">
<path d="M348.95718,1348.1805L348.03693,1348.1744L347.11658,1348.1691Q347.43054,1297.4302,347.74442,1246.6919Q348.66476,1246.6973,349.58508,1246.7031Q349.2712,1297.4419,348.95718,1348.1805 Z"/>
</g>
<g style="fill:rgb(76,175,80); fill-opacity:1.0; stroke-linejoin: miter">
<path d="M358.2089,1310.729L364.6063,1310.7684L371.0035,1310.8075Q371.23923,1272.7004,371.47498,1234.5925Q365.07776,1234.553,358.68045,1234.5127Q358.4447,1272.6211,358.2089,1310.729 Z"/>
</g>
<g style="fill:rgb(76,175,80); fill-opacity:1.0; stroke-linejoin: miter">
<path d="M365.4461,1321.7861L364.52585,1321.7805L363.6055,1321.7742Q363.91953,1271.0361,364.2334,1220.2971Q365.15366,1220.303,366.07407,1220.3086Q365.76004,1271.0474,365.4461,1321.7861 Z"/>
</g>
<g style="fill:rgb(76,175,80); fill-opacity:1.0; stroke-linejoin: miter">
<path d="M374.64185,1293.3951L381.03912,1293.4344L387.43628,1293.474Q387.67212,1255.3662,387.90787,1217.259Q381.51065,1217.2188,375.11337,1217.1787Q374.87762,1255.2871,374.64185,1293.3951 Z"/>
</g>
<g style="fill:rgb(76,175,80); fill-opacity:1.0; stroke-linejoin: miter">
<path d="M381.87912,1304.4525L380.95877,1304.4467L380.03845,1304.441Q380.35236,1253.7021,380.66623,1202.9636Q381.58658,1202.9692,382.50693,1202.9749Q382.19302,1253.7136,381.87912,1304.4525 Z"/>
</g>
<g style="fill:rgb(255,0,0); fill-opacity:1.0; stroke-linejoin: miter">
<path d="M389.65784,1283.2069L396.05505,1283.2467L402.45227,1283.2867Q402.21637,1321.3942,401.9806,1359.5017Q395.58344,1359.4624,389.1863,1359.4229Q389.42206,1321.3151,389.65784,1283.2069 Z"/>
</g>
<g style="fill:rgb(255,0,0); fill-opacity:1.0; stroke-linejoin: miter">
<path d="M397.03122,1272.2405L396.11102,1272.2346L395.1907,1272.2288Q394.8767,1322.9678,394.56274,1373.7063Q395.48306,1373.7124,396.4033,1373.7178Q396.71725,1322.9792,397.03122,1272.2405 Z"/>
</g>
<g style="fill:rgb(255,0,0); fill-opacity:1.0; stroke-linejoin: miter">
<path d="M405.87244,1301.1486L412.26965,1301.1884L418.6668,1301.2281Q418.43103,1339.3357,418.19516,1377.4434Q411.79803,1377.404,405.40082,1377.3645Q405.6366,1339.2566,405.87244,1301.1486 Z"/>
</g>
<g style="fill:rgb(255,0,0); fill-opacity:1.0; stroke-linejoin: miter">
<path d="M413.24588,1290.1818L412.32556,1290.1761L411.4052,1290.1705Q411.09125,1340.9092,410.77725,1391.6475Q411.6976,1391.6533,412.61786,1391.6592Q412.93192,1340.9207,413.24588,1290.1818 Z"/>
</g>
<g style="fill:rgb(255,0,0); fill-opacity:1.0; stroke-linejoin: miter">
<path d="M422.01416,1330.8484L428.41138,1330.8882L434.8086,1330.928Q434.5728,1369.0354,434.33698,1407.1433Q427.93976,1407.104,421.54254,1407.0647Q421.77844,1368.9565,422.01416,1330.8484 Z"/>
</g>
<g style="fill:rgb(255,0,0); fill-opacity:1.0; stroke-linejoin: miter">
<path d="M429.38766,1319.8817L428.46735,1319.8761L427.54706,1319.8707Q427.23303,1370.6091,426.91904,1421.3474Q427.83932,1421.3535,428.75964,1421.3594Q429.0737,1370.6206,429.38766,1319.8817 Z"/>
</g>
<g style="fill:rgb(255,0,0); fill-opacity:1.0; stroke-linejoin: miter">
<path d="M438.17514,1357.4448L444.57242,1357.4846L450.96964,1357.5249Q450.7338,1395.6321,450.498,1433.7395Q444.1008,1433.7004,437.70358,1433.6614Q437.93942,1395.553,438.17514,1357.4448 Z"/>
</g>
<g style="fill:rgb(255,0,0); fill-opacity:1.0; stroke-linejoin: miter">
<path d="M445.54868,1346.4783L444.62833,1346.4727L443.70804,1346.467Q443.39407,1397.2058,443.07996,1447.9443Q444.00037,1447.95,444.92062,1447.9556Q445.23468,1397.217,445.54868,1346.4783 Z"/>
</g>
<g style="fill:rgb(255,0,0); fill-opacity:1.0; stroke-linejoin: miter">
<path d="M454.39236,1374.9811L460.78952,1375.0211L467.18668,1375.0607Q466.95084,1413.1681,466.715,1451.2755Q460.31796,1451.2365,453.92075,1451.1969Q454.15646,1413.089,454.39236,1374.9811 Z"/>
</g>
<g style="fill:rgb(255,0,0); fill-opacity:1.0; stroke-linejoin: miter">
<path d="M461.76578,1364.0143L460.8455,1364.0087L459.92514,1364.0033Q459.61118,1414.7418,459.29706,1465.48Q460.21747,1465.4858,461.13776,1465.4917Q461.4518,1414.753,461.76578,1364.0143 Z"/>
</g>
<g style="fill:rgb(255,0,0); fill-opacity:1.0; stroke-linejoin: miter">
<path d="M472.7919,1397.836L479.189,1397.8761L485.58633,1397.9156Q485.35043,1436.0233,485.11453,1474.1306Q478.71725,1474.0913,472.32004,1474.0522Q472.556,1435.9442,472.7919,1397.836 Z"/>
</g>
<g style="fill:rgb(255,0,0); fill-opacity:1.0; stroke-linejoin: miter">
<path d="M480.16525,1386.8695L479.24496,1386.8636L478.32468,1386.858Q478.0107,1437.5966,477.6967,1488.3352Q478.6169,1488.3406,479.53714,1488.3467Q479.85135,1437.608,480.16525,1386.8695 Z"/>
</g>
<g style="fill:rgb(255,0,0); fill-opacity:1.0; stroke-linejoin: miter">
<path d="M489.00644,1415.7777L495.40366,1415.8173L501.8008,1415.8575Q501.56497,1453.9647,501.32913,1492.072Q494.93192,1492.033,488.53476,1491.9934Q488.77066,1453.8856,489.00644,1415.7777 Z"/>
</g>
<g style="fill:rgb(255,0,0); fill-opacity:1.0; stroke-linejoin: miter">
<path d="M496.3799,1404.8109L495.45963,1404.8055L494.5394,1404.7997Q494.2252,1455.538,493.91122,1506.2769Q494.8314,1506.2827,495.7518,1506.2883Q496.06595,1455.5494,496.3799,1404.8109 Z"/>
</g>
<g style="fill:rgb(255,0,0); fill-opacity:1.0; stroke-linejoin: miter">
<path d="M505.14835,1445.4774L511.54556,1445.5172L517.94275,1445.557Q517.7067,1483.6646,517.471,1521.772Q511.0737,1521.7327,504.67648,1521.6931Q504.91226,1483.5852,505.14835,1445.4774 Z"/>
</g>
<g style="fill:rgb(255,0,0); fill-opacity:1.0; stroke-linejoin: miter">
<path d="M512.5217,1434.5109L511.60135,1434.505L510.68112,1434.4994Q510.3669,1485.238,510.05307,1535.9766Q510.97348,1535.9822,511.89365,1535.988Q512.2076,1485.2493,512.5217,1434.5109 Z"/>
</g>
<g style="fill:rgb(255,0,0); fill-opacity:1.0; stroke-linejoin: miter">
<path d="M521.30914,1472.0737L527.70636,1472.114L534.1036,1472.1536Q533.86786,1510.2612,533.63214,1548.3685Q527.2349,1548.329,520.8376,1548.2899Q521.0733,1510.1819,521.30914,1472.0737 Z"/>
</g>
<g style="fill:rgb(255,0,0); fill-opacity:1.0; stroke-linejoin: miter">
<path d="M528.68274,1461.1073L527.7623,1461.1017L526.84204,1461.0958Q526.528,1511.8345,526.21405,1562.5729Q527.1342,1562.579,528.05475,1562.5848Q528.3687,1511.846,528.68274,1461.1073 Z"/>
</g>
<g style="fill:rgb(255,0,0); fill-opacity:1.0; stroke-linejoin: miter">
<path d="M537.5264,1489.6099L543.9237,1489.6498L550.3207,1489.6901Q550.08496,1527.7972,549.84924,1565.9044Q543.4517,1565.8649,537.0546,1565.8258Q537.2906,1527.718,537.5264,1489.6099 Z"/>
</g>
<g style="fill:rgb(255,0,0); fill-opacity:1.0; stroke-linejoin: miter">
<path d="M544.8998,1478.6432L543.9795,1478.6378L543.05914,1478.6323Q542.7452,1529.3706,542.4312,1580.1093Q543.3515,1580.1149,544.27185,1580.121Q544.58594,1529.3822,544.8998,1478.6432 Z"/>
</g>
<g style="fill:rgb(255,0,0); fill-opacity:1.0; stroke-linejoin: miter">
<path d="M554.8041,1497.7916L561.2012,1497.8319L567.5985,1497.8715Q567.3629,1535.9794,567.1271,1574.0868Q560.72986,1574.0475,554.33264,1574.0082Q554.56836,1535.9,554.8041,1497.7916 Z"/>
</g>
<g style="fill:rgb(255,0,0); fill-opacity:1.0; stroke-linejoin: miter">
<path d="M562.1775,1486.8251L561.2572,1486.8192L560.3368,1486.8138Q560.0231,1537.5524,559.7092,1588.2916Q560.62964,1588.2972,561.5498,1588.3031Q561.86365,1537.5638,562.1775,1486.8251 Z"/>
</g>
<g style="fill:rgb(255,0,0); fill-opacity:1.0; stroke-linejoin: miter">
<path d="M571.01855,1515.7333L577.4158,1515.7733L583.8131,1515.8131Q583.5775,1553.9208,583.3417,1592.0284Q576.9446,1591.9891,570.54724,1591.9498Q570.78296,1553.8417,571.01855,1515.7333 Z"/>
</g>
<g style="fill:rgb(255,0,0); fill-opacity:1.0; stroke-linejoin: miter">
<path d="M578.39197,1504.7665L577.4718,1504.7609L576.5515,1504.756Q576.2377,1555.4943,575.92377,1606.2328Q576.84406,1606.2384,577.76447,1606.2443Q578.07825,1555.5057,578.39197,1504.7665 Z"/>
</g>
<g style="fill:rgb(255,0,0); fill-opacity:1.0; stroke-linejoin: miter">
<path d="M587.16064,1545.4335L593.558,1545.473L599.95483,1545.5133Q599.71924,1583.6207,599.4834,1621.7284Q593.08636,1621.6888,586.6893,1621.6498Q586.92505,1583.5416,587.16064,1545.4335 Z"/>
</g>
<g style="fill:rgb(255,0,0); fill-opacity:1.0; stroke-linejoin: miter">
<path d="M594.53406,1534.4667L593.61365,1534.4615L592.6936,1534.4554Q592.37964,1585.1942,592.06573,1635.933Q592.986,1635.9388,593.9062,1635.9442Q594.2201,1585.2057,594.53406,1534.4667 Z"/>
</g>
<g style="fill:rgb(255,0,0); fill-opacity:1.0; stroke-linejoin: miter">
<path d="M603.32166,1572.0304L609.71875,1572.07L616.1161,1572.11Q615.8801,1610.2172,615.64453,1648.3246Q609.24744,1648.2855,602.8502,1648.2462Q603.0857,1610.1381,603.32166,1572.0304 Z"/>
</g>
<g style="fill:rgb(255,0,0); fill-opacity:1.0; stroke-linejoin: miter">
<path d="M610.69507,1561.0636L609.77466,1561.058L608.8544,1561.0521Q608.5404,1611.7906,608.2267,1662.5297Q609.147,1662.5353,610.0674,1662.5414Q610.381,1611.8019,610.69507,1561.0636 Z"/>
</g>
<g style="fill:rgb(255,0,0); fill-opacity:1.0; stroke-linejoin: miter">
<path d="M619.53894,1589.5663L625.93604,1589.6063L632.3331,1589.6461Q632.0974,1627.753,631.8617,1665.8612Q625.4645,1665.8217,619.0674,1665.7823Q619.3031,1627.6742,619.53894,1589.5663 Z"/>
</g>
<g style="fill:rgb(255,0,0); fill-opacity:1.0; stroke-linejoin: miter">
<path d="M626.9121,1578.5995L625.9918,1578.5939L625.07166,1578.589Q624.7577,1629.3268,624.44385,1680.0658Q625.364,1680.0714,626.2843,1680.077Q626.59814,1629.3383,626.9121,1578.5995 Z"/>
</g>
<g style="fill:rgb(76,175,80); fill-opacity:1.0; stroke-linejoin: miter">
<path d="M639.6155,1638.0028L646.0124,1638.0421L652.4096,1638.0814Q652.64545,1599.9739,652.88104,1561.8665Q646.48395,1561.8267,640.08673,1561.7869Q639.851,1599.8948,639.6155,1638.0028 Z"/>
</g>
<g style="fill:rgb(76,175,80); fill-opacity:1.0; stroke-linejoin: miter">
<path d="M646.8525,1649.0599L645.9318,1649.0543L645.01166,1649.0492Q645.3256,1598.31,645.6396,1547.571Q646.55975,1547.5767,647.4799,1547.5823Q647.16644,1598.3215,646.8525,1649.0599 Z"/>
</g>
<g style="fill:rgb(76,175,80); fill-opacity:1.0; stroke-linejoin: miter">
<path d="M656.0505,1620.2635L662.4476,1620.3026L668.8449,1620.3422Q669.08075,1582.2346,669.31647,1544.1267Q662.9191,1544.0869,656.5218,1544.0471Q656.2863,1582.1555,656.0505,1620.2635 Z"/>
</g>
<g style="fill:rgb(76,175,80); fill-opacity:1.0; stroke-linejoin: miter">
<path d="M663.2878,1631.3207L662.3674,1631.3148L661.4472,1631.309Q661.76117,1580.5703,662.07477,1529.8319Q662.99506,1529.8375,663.91547,1529.8429Q663.6016,1580.5818,663.2878,1631.3207 Z"/>
</g>
<g style="fill:rgb(76,175,80); fill-opacity:1.0; stroke-linejoin: miter">
<path d="M672.5588,1590.7654L678.956,1590.8047L685.3531,1590.8442Q685.5887,1552.7366,685.8244,1514.6288Q679.4273,1514.5892,673.0301,1514.5492Q672.7944,1552.6575,672.5588,1590.7654 Z"/>
</g>
<g style="fill:rgb(76,175,80); fill-opacity:1.0; stroke-linejoin: miter">
<path d="M679.7957,1601.8225L678.8754,1601.8167L677.95526,1601.811Q678.269,1551.0723,678.58307,1500.3336Q679.50323,1500.339,680.4235,1500.3448Q680.10956,1551.0837,679.7957,1601.8225 Z"/>
</g>
<g style="fill:rgb(76,175,80); fill-opacity:1.0; stroke-linejoin: miter">
<path d="M689.04755,1564.3711L695.4445,1564.4104L701.842,1564.4497Q702.0778,1526.3422,702.3134,1488.2345Q695.9161,1488.1945,689.519,1488.1547Q689.2834,1526.2628,689.04755,1564.3711 Z"/>
</g>
<g style="fill:rgb(76,175,80); fill-opacity:1.0; stroke-linejoin: miter">
<path d="M696.2847,1575.4282L695.3643,1575.4233L694.44415,1575.4165Q694.758,1524.6779,695.07184,1473.9391Q695.9921,1473.945,696.9124,1473.9501Q696.5986,1524.6893,696.2847,1575.4282 Z"/>
</g>
<g style="fill:rgb(76,175,80); fill-opacity:1.0; stroke-linejoin: miter">
<path d="M705.4803,1547.0369L711.8774,1547.0762L718.2747,1547.1155Q718.51044,1509.0082,718.74615,1470.9005Q712.34906,1470.8607,705.9517,1470.8207Q705.716,1508.9288,705.4803,1547.0369 Z"/>
</g>
<g style="fill:rgb(76,175,80); fill-opacity:1.0; stroke-linejoin: miter">
<path d="M712.71747,1558.0942L711.79706,1558.0884L710.8769,1558.0828Q711.19073,1507.3441,711.5047,1456.6056Q712.4251,1456.611,713.3454,1456.6163Q713.0313,1507.3553,712.71747,1558.0942 Z"/>
</g>
<g style="fill:rgb(76,175,80); fill-opacity:1.0; stroke-linejoin: miter">
<path d="M723.27924,1480.849L729.6765,1480.8882L736.07385,1480.928Q736.30963,1442.8204,736.5452,1404.713Q730.14813,1404.6732,723.75104,1404.6329Q723.5152,1442.7413,723.27924,1480.849 Z"/>
</g>
<g style="fill:rgb(76,175,80); fill-opacity:1.0; stroke-linejoin: miter">
<path d="M730.5167,1491.906L729.5963,1491.9001L728.67596,1491.8944Q728.9899,1441.1561,729.3038,1390.4176Q730.22394,1390.4232,731.1442,1390.4291Q730.8306,1441.1676,730.5167,1491.906 Z"/>
</g>
<g style="fill:rgb(76,175,80); fill-opacity:1.0; stroke-linejoin: miter">
<path d="M739.71484,1463.1096L746.1118,1463.1489L752.50903,1463.1885Q752.7448,1425.0812,752.9809,1386.9738Q746.58356,1386.9337,740.18646,1386.8937Q739.9506,1425.0018,739.71484,1463.1096 Z"/>
</g>
<g style="fill:rgb(76,175,80); fill-opacity:1.0; stroke-linejoin: miter">
<path d="M746.9519,1474.167L746.0315,1474.1611L745.1113,1474.1553Q745.42535,1423.4169,745.7392,1372.6783Q746.65936,1372.6837,747.5798,1372.6893Q747.2659,1423.4281,746.9519,1474.167 Z"/>
</g>
<g style="fill:rgb(76,175,80); fill-opacity:1.0; stroke-linejoin: miter">
<path d="M756.22284,1433.6119L762.62006,1433.6512L769.01733,1433.691Q769.2532,1395.5829,769.4889,1357.4757Q763.0916,1357.4359,756.6945,1357.3959Q756.4588,1395.5038,756.22284,1433.6119 Z"/>
</g>
<g style="fill:rgb(76,175,80); fill-opacity:1.0; stroke-linejoin: miter">
<path d="M763.46,1444.6691L762.5396,1444.6632L761.61945,1444.6573Q761.9333,1393.9188,762.2474,1343.1803Q763.1673,1343.1862,764.0877,1343.1915Q763.7741,1393.9303,763.46,1444.6691 Z"/>
</g>
<g style="fill:rgb(76,175,80); fill-opacity:1.0; stroke-linejoin: miter">
<path d="M772.7119,1407.2177L779.10925,1407.2567L785.5065,1407.2963Q785.74207,1369.1886,785.97766,1331.0812Q779.58044,1331.0409,773.1831,1331.0013Q772.94763,1369.1095,772.7119,1407.2177 Z"/>
</g>
<g style="fill:rgb(76,175,80); fill-opacity:1.0; stroke-linejoin: miter">
<path d="M779.9491,1418.2745L779.0287,1418.2694L778.1083,1418.2631Q778.42236,1367.5245,778.73627,1316.7858Q779.65656,1316.7914,780.5767,1316.7972Q780.2628,1367.536,779.9491,1418.2745 Z"/>
</g>
<g style="fill:rgb(76,175,80); fill-opacity:1.0; stroke-linejoin: miter">
<path d="M789.1448,1389.8837L795.5421,1389.923L801.9393,1389.9625Q802.175,1351.8551,802.4108,1313.7473Q796.0136,1313.7076,789.6164,1313.6676Q789.3806,1351.7755,789.1448,1389.8837 Z"/>
</g>
<g style="fill:rgb(76,175,80); fill-opacity:1.0; stroke-linejoin: miter">
<path d="M796.38196,1400.9408L795.4617,1400.9352L794.5415,1400.9293Q794.85535,1350.1908,795.169,1299.4523Q796.0894,1299.4579,797.0098,1299.4633Q796.6958,1350.202,796.38196,1400.9408 Z"/>
</g>
<g style="fill:rgb(220,229,235); fill-opacity:1.0; stroke-linejoin: miter">
<path d="M255.23892,1224.997L255.23892,1224.9977L255.23892,1224.9982L251.01453,1222.8326C259.2481,1216.8317,268.68338,1209.7947,276.81842,1209.845L276.81842,1209.8455C282.9385,1209.883,287.67456,1213.7375,290.76834,1221.7146L290.76834,1221.7151C294.87625,1232.3059,296.69348,1251.6536,298.13754,1266.8137L298.13754,1266.8147C299.16617,1277.6125,299.98724,1285.9155,301.0796,1288.7319L301.0796,1288.7322C301.16513,1288.9524,301.22028,1289.0471,301.22906,1289.0613L301.22906,1289.0623C301.25247,1289.0981,301.13272,1288.8843,300.80264,1288.6804L300.80258,1288.6814C300.5309,1288.5125,300.16443,1288.3828,299.74164,1288.3799L299.74164,1288.3806C298.87054,1288.3748,298.45734,1288.8833,298.54648,1288.7893L298.54648,1288.7898C299.8298,1287.4368,302.1048,1279.804,305.04413,1269.4951L305.04413,1269.4958C308.26266,1258.2073,312.1272,1244.4917,316.13016,1238.9082L316.13016,1238.9089C317.94778,1236.3735,320.15085,1234.9592,322.76566,1234.9756L322.76566,1234.9763C325.67828,1234.9937,328.36768,1236.9055,330.1578,1238.1025L330.1578,1238.1033C332.52097,1239.6826,334.06552,1240.612,335.49304,1240.6208L335.49304,1240.6211C336.3977,1240.6265,337.89545,1240.2222,339.9801,1237.2429L339.9801,1237.2432C342.88013,1233.0979,346.12857,1225.1267,349.81534,1216.0273L349.81534,1216.0278C353.97388,1205.7634,358.63266,1194.2231,363.706,1186.9724L363.706,1186.9729C366.6454,1182.7712,370.39993,1179.0045,375.03128,1179.0333L375.03128,1179.034C376.17316,1179.0404,377.2974,1179.2833,378.3869,1179.7506L378.3869,1179.7511C387.4663,1183.6467,396.35745,1205.8735,404.968,1226.8125L404.968,1226.8127C412.08878,1244.1277,419.36423,1261.7793,426.8041,1272.4053L426.8041,1272.406C436.5065,1286.2626,446.40845,1287.9808,454.99124,1289.4918L454.99124,1289.4923C460.78464,1290.5116,467.03366,1291.4935,471.18167,1297.1654L471.18167,1297.1659C475.23166,1302.703,477.05527,1312.6061,478.96182,1322.5963L478.96182,1322.597C481.52463,1336.0243,484.34695,1350.5431,491.6442,1360.5209L491.6442,1360.5214C491.92844,1360.9093,492.2206,1361.2926,492.51797,1361.6656L492.51797,1361.6659C497.86325,1368.3754,505.58255,1372.8864,515.17163,1378.4408L515.17163,1378.4413C528.2008,1385.9879,543.98175,1395.1158,559.02545,1413.9999L559.02545,1414.0004C561.27313,1416.8212,563.50165,1419.8566,565.7022,1423.1354L565.7022,1423.1359C580.4953,1445.1749,594.0281,1478.2557,605.0206,1505.1019L605.0206,1505.1024C612.7699,1524.0272,619.1625,1539.5983,623.9104,1546.672L623.9103,1546.673C624.99524,1548.288,625.8462,1549.2277,626.44446,1549.673L626.44446,1549.6727C626.7291,1549.8851,626.8688,1549.9174,626.8699,1549.9178L626.8694,1549.9188C626.8678,1549.9174,626.8511,1549.9142,626.82117,1549.914L626.82117,1549.9142C626.74036,1549.9132,626.67944,1549.9366,626.6664,1549.9432L627.8638,1552.3165L627.8638,1552.317L627.8638,1552.3165L627.8638,1552.317L626.6665,1549.9427C630.0571,1548.2328,632.031,1529.0912,633.75903,1507.9974L633.75903,1507.9984C634.666,1496.9247,635.5359,1486.1989,636.98175,1480.225L636.98175,1480.2252C637.7813,1476.9203,638.93256,1474.2211,640.99225,1472.9178L640.99225,1472.9188C641.83344,1472.3856,642.75714,1472.1327,643.6982,1472.1385L643.6982,1472.1388C643.8249,1472.139,643.94977,1472.1444,644.0734,1472.1542L644.07294,1472.1552C647.04535,1472.3868,649.8637,1475.3407,651.55804,1476.9843L651.55804,1476.9847C654.2431,1479.59,655.7347,1480.7833,656.64703,1480.7892L656.64703,1480.7894C656.68304,1480.7894,656.9714,1480.8363,657.54266,1480.1146L657.54266,1480.1156C660.1535,1476.8177,662.5953,1466.1727,665.52966,1452.9429L665.52966,1452.9436C668.73303,1438.4995,672.43994,1421.5974,677.9656,1412.8713L677.9656,1412.8723C682.3552,1405.9392,687.9828,1403.8645,693.391,1403.8982L693.391,1403.8987C697.03735,1403.9207,700.5188,1404.9014,703.147,1405.6306L703.147,1405.6313C705.27515,1406.2214,706.5975,1406.5653,707.47296,1406.5709L707.47296,1406.5717C707.67975,1406.5719,707.767,1406.5504,707.7734,1406.5485L707.7734,1406.5492C707.76984,1406.5494,707.69745,1406.5714,707.6027,1406.6439L707.6027,1406.6449C707.51324,1406.7123,707.4747,1406.7719,707.4725,1406.7753L707.4725,1406.7758C707.8444,1406.1727,707.8985,1404.2435,707.715,1399.3947L707.715,1399.3949C707.3968,1390.9852,706.8708,1377.485,713.64764,1361.9716L713.64764,1361.9723C724.3083,1337.5685,753.07733,1308.3514,781.2155,1279.7136C782.24457,1278.6663,783.9277,1278.6516,784.97504,1279.6807C786.0223,1280.7098,786.0372,1282.393,785.00824,1283.4406L785.00824,1283.441C756.5339,1312.4208,728.68964,1340.8214,718.5202,1364.1L718.5202,1364.101C712.258,1378.4349,712.71405,1390.8881,713.02826,1399.1935L713.02826,1399.194C713.1712,1402.9669,713.45844,1407.201,711.99713,1409.568L711.99725,1409.569C711.70526,1410.0414,711.32465,1410.4913,710.83417,1410.8661L710.83417,1410.8671C710.31854,1411.2609,709.75934,1411.5135,709.2088,1411.6683L709.2088,1411.6686C708.5994,1411.839,707.9943,1411.8912,707.4401,1411.8881L707.4401,1411.8885C705.68823,1411.877,703.5613,1411.2639,701.72546,1410.7544L701.72546,1410.7549C698.99963,1409.9983,696.18677,1409.2324,693.35815,1409.2151L693.35815,1409.2156C689.6477,1409.1919,685.79553,1410.4448,682.4579,1415.7156L682.4579,1415.7158C677.5587,1423.4526,674.0305,1439.1707,670.7207,1454.0942L670.7207,1454.095C667.9858,1466.4257,665.3049,1478.8776,661.71136,1483.4154L661.71136,1483.4159C660.373,1485.1058,658.6491,1486.1185,656.6142,1486.1061L656.6142,1486.1063C653.03876,1486.0839,649.76605,1482.6547,647.8553,1480.8004L647.8553,1480.8007C645.4112,1478.4291,644.2276,1477.4999,643.6585,1477.4552L643.65826,1477.4562C643.65826,1477.4552,643.6612,1477.4552,643.6652,1477.4554L643.6652,1477.4559C643.7297,1477.4557,643.80597,1477.4298,643.83466,1477.4117L643.83466,1477.4127C643.7149,1477.4877,642.935,1478.2299,642.1496,1481.4757L642.1496,1481.476C640.8277,1486.9374,639.9849,1497.121,639.0584,1508.4323L639.0584,1508.4325C637.57184,1526.5812,635.9601,1551.2108,629.06104,1554.6908L627.8638,1552.3165L627.8638,1552.317L627.8638,1552.3165L627.8638,1552.317L629.0614,1554.6903C628.3722,1555.0382,627.605,1555.236,626.7883,1555.2311L626.7883,1555.2313C626.4208,1555.2289,626.06006,1555.1852,625.70776,1555.1063L625.70715,1555.1073C624.79895,1554.9027,623.9856,1554.4713,623.2683,1553.9374L623.2683,1553.9371C621.9375,1552.9462,620.68335,1551.4049,619.4956,1549.6354L619.4955,1549.6351C614.3616,1541.9867,607.71716,1525.7191,600.1001,1507.1168L600.1001,1507.1173C589.03674,1480.0983,575.71356,1447.5917,561.2873,1426.0985L561.2873,1426.0988C559.1662,1422.9381,557.0235,1420.0204,554.86676,1417.3129L554.86676,1417.3134C540.48816,1399.2638,525.46716,1390.5497,512.5066,1383.0419L512.5066,1383.0426C503.13034,1377.6107,494.447,1372.6207,488.35922,1364.9789L488.35922,1364.9799C488.01462,1364.5463,487.67947,1364.1068,487.3524,1363.6593L487.3524,1363.66C479.2092,1352.5253,476.23862,1336.6901,473.73904,1323.5929L473.73904,1323.5939C471.71768,1313.0021,470.05338,1304.6298,466.88986,1300.3043L466.88986,1300.3046C464.20322,1296.6307,460.27243,1295.8207,454.0695,1294.7286L454.0695,1294.7291C445.02423,1293.1361,433.37463,1291.0599,422.44846,1275.4551L422.44846,1275.4556C414.59006,1264.2312,407.075,1245.916,400.0505,1228.8347L400.0505,1228.835C390.752,1206.2231,382.76895,1187.4167,376.29,1184.6367L376.29,1184.6372C375.81683,1184.4338,375.3923,1184.3525,374.99832,1184.3501L374.99832,1184.3506C373.31454,1184.3398,370.97986,1185.8511,368.06262,1190.0205L368.06262,1190.0208C363.41528,1196.6626,358.99423,1207.5325,354.74335,1218.0242L354.74335,1218.0247C351.17758,1226.8252,347.67224,1235.5239,344.33667,1240.2908L344.33667,1240.2915C341.69733,1244.0635,338.76843,1245.9583,335.4601,1245.9377L335.4601,1245.9382C332.12344,1245.9172,329.17755,1243.8435,327.2021,1242.5227L327.20215,1242.5232C324.9384,1241.0088,323.7067,1240.2986,322.73276,1240.2927L322.73276,1240.2935C322.37,1240.2903,321.61563,1240.3828,320.45148,1242.0068L320.45148,1242.0063C317.13977,1246.6257,313.54358,1259.0769,310.1575,1270.9531L310.1575,1270.9536C307.54175,1280.127,304.86703,1289.8535,302.40326,1292.4492L302.40326,1292.4497C301.96863,1292.9072,301.055,1293.7053,299.70874,1293.697L299.70874,1293.6978C299.06683,1293.6934,298.48755,1293.5002,298.0076,1293.2036L298.0075,1293.2046C297.38635,1292.8198,296.9859,1292.2986,296.7385,1291.9082L296.7385,1291.9084C296.48346,1291.5059,296.28363,1291.0706,296.1223,1290.6548L296.1223,1290.6553C294.68372,1286.9456,293.81818,1277.5405,292.84442,1267.3181L292.84442,1267.3186C291.3644,1251.7812,289.58438,1233.3662,285.81104,1223.6372L285.81104,1223.638C283.196,1216.8948,279.97543,1215.1819,276.78552,1215.1619L276.78552,1215.1628C270.83743,1215.1252,263.0926,1220.6088,254.1464,1227.1295C253.33548,1227.7206,252.2609,1227.8048,251.36792,1227.3473C250.475,1226.8898,249.91574,1225.9681,249.922,1224.9647L249.922,1224.9652L249.922,1224.964C249.93106,1223.4957,251.12866,1222.3129,252.5969,1222.3219C254.06512,1222.3312,255.24808,1223.5287,255.23892,1224.997 Z"/>
</g>
</g>
</svg>